<?xml version="1.0" encoding="UTF-8"?><!DOCTYPE svg PUBLIC "-//W3C//DTD SVG 1.1//EN" "http://www.w3.org/Graphics/SVG/1.1/DTD/svg11.dtd"><svg xmlns="http://www.w3.org/2000/svg"><symbol id="icon-chat" viewBox="0 0 64 64">
    <path d="M47.964 8.127H16.036c-4.4 0-8 3.6-8 8v20.977c0 4.4 3.6 8 8 8h7.397v10.768l13.333-10.768h11.197c4.4 0 8-3.6 8-8V16.127c.001-4.4-3.599-8-7.999-8zm3 28.977c0 1.626-1.374 3-3 3H35l-1.375 1.11-5.191 4.193v-5.303H16.037c-1.626 0-3-1.374-3-3V16.127c0-1.626 1.374-3 3-3h31.928c1.626 0 3 1.374 3 3v20.977z"/>
    <circle cx="21.743" cy="26.617" r="2.913"/>
    <circle cx="32" cy="26.617" r="2.913"/>
    <circle cx="42.256" cy="26.617" r="2.913"/>
</symbol><symbol id="icon-facebook" viewBox="0 0 10 19">
    <title>
        facebook
    </title>
    <path d="M9.766.157v2.946H8.014c-.64 0-1.071.134-1.295.402-.223.268-.335.67-.335 1.205v2.11h3.27l-.435 3.303H6.384v8.471H2.97v-8.47H.123V6.82H2.97V4.387c0-1.384.387-2.457 1.161-3.22C4.904.404 5.934.023 7.222.023c1.093 0 1.941.045 2.544.134z" fill-rule="evenodd"/>
</symbol><symbol id="icon-fullscreen" viewBox="0 0 32 32">
    <g>
        <path d="M29.414 26.586L22.828 20 20 22.828l6.586 6.586L24 32h8v-8z"/>
        <path d="M2.586 5.414L9.172 12 12 9.172 5.414 2.586 8 0H0v8z"/>
        <path d="M26.586 2.586L20 9.172 22.828 12l6.586-6.586L32 8V0h-8z"/>
        <path d="M12 22.828L9.172 20l-6.586 6.586L0 24v8h8l-2.586-2.586z"/>
    </g>
</symbol><symbol id="icon-notification" viewBox="0 0 48 48">
    <path clip-rule="evenodd" d="M27.981 41.947c.001.019.006.036.006.056C27.987 44.21 26.202 46 24 46s-3.987-1.79-3.987-3.997c0-.019.005-.036.005-.056C7.267 41.597 4 39.52 4 37.003c0-.788.344-1.53 1.181-2.194C11.209 28.094 13 29.953 13 20.006c0-6.632.271-12.712 8.258-13.807A2.997 2.997 0 0 1 24 2.01a2.994 2.994 0 0 1 2.742 4.189C34.729 7.294 35 13.374 35 20.006c0 9.977 1.8 8.073 7.872 14.86.794.65 1.128 1.371 1.128 2.137 0 2.515-3.353 4.592-16.019 4.944zM24 44.003a1.996 1.996 0 0 0 1.994-1.998l-.002-.018c-.651.009-1.296.019-1.992.019s-1.34-.01-1.992-.019l-.002.018c0 1.103.892 1.998 1.994 1.998zm0-39.996c-.551 0-.996.447-.996.999s.445 1 .996 1 .997-.448.997-1-.446-.999-.997-.999zm17.605 32.407s-1.522-1.714-4.018-3.984C34.179 29.325 33 27.853 33 20.006c0-7.664-.418-12-9-12s-9 4.336-9 12c0 7.848-1.18 9.321-4.59 12.427-2.447 2.229-3.986 3.942-3.986 3.942-.424.337-.424.533-.424.628 0 .123.205 3.003 18 3.003s18-2.88 18-3.003c0-.08 0-.267-.395-.589z" fill-rule="evenodd"/>
</symbol></svg>